<svg id="Слой_1" data-name="Слой 1" xmlns="http://www.w3.org/2000/svg" viewBox="0 0 1080 1080"><defs><style>.cls-1{fill:#81cc2b;}</style></defs><title>Монтажная область 1</title><path class="cls-1" d="M435.43,607.28c-.64-15.38-44-90.57-17.17-209.15,11.29-49.92,33.56-96.51,91.51-123.56,12.37-5.77,25-10.65,37.54-16,36.51-15.78,71.75-34,102.26-61.35,12.62-11.3,24-24,31.95-40a73.89,73.89,0,0,0,4.56-12A342.43,342.43,0,0,1,697,178c12.43,43.58,20,87.73,19.22,132.74-.67,38.14-7.65,74.1-24.68,106.41-12.63,23.94-29.88,43-49.8,59.18-21.33,17.34-44.82,30.62-69,42.62-28.15,14-57.34,25.53-85.2,40.18-14.56,7.66-28.72,16.07-40.24,28.81A61.18,61.18,0,0,0,435.43,607.28Z"/><path class="cls-1" d="M540,0C241.77,0,0,241.76,0,540A537.45,537.45,0,0,0,104.06,858.72a544.15,544.15,0,0,0,54.43,63.44A540,540,0,0,0,1080,540C1080,241.76,838.24,0,540,0Zm0,999A457.63,457.63,0,0,1,209.71,858.71a459,459,0,0,1,660.59,0A457.66,457.66,0,0,1,540,999ZM921.51,795.27a540,540,0,0,0-763,0A456.8,456.8,0,0,1,81,540C81,286.5,286.51,81,540,81S999,286.5,999,540A456.8,456.8,0,0,1,921.51,795.27Z"/></svg>